# xmcd
# 
# Track frame offsets:
#     150
#     22490
#     35719
#     43979
#     61414
#     70296
#     98761
#     110427
#     124518
#     141788
#     155507
#     161474
#     185481
#     200818
#     238155
# 
# Disc length: 3664
# 
# Revision: 12
# Processed by: cddbd v1.5.2PL0 Copyright (c) Steve Scherf et al.
# Submitted via: fre:ac v1.0.31
# 
DISCID=e20e4e0f
DTITLE=Nikolaus Harnoncourt - Mozart - Requiem in D Minor, KV 626 Unfinished
DYEAR=2004
DGENRE=Classical
TTITLE0=Requiem In D Minor KV 626 - I. Introitu - Requiem
TTITLE1=Requiem In D Minor KV 626 - II. Kyrie - Kyrie
TTITLE2=Requiem In D Minor KV 626 - III. Sequentia - 1. Dies Irae
TTITLE3=Requiem In D Minor KV 626 - III. Sequentia - 2. Tuba Mirum
TTITLE4=Requiem In D Minor KV 626 - III. Sequentia - 3. Rex Tremendae
TTITLE5=Requiem In D Minor KV 626 - III. Sequentia - 4. Recordare
TTITLE6=Requiem In D Minor KV 626 - III. Sequentia - 5. Confutatis
TTITLE7=Requiem In D Minor KV 626 - III. Sequentia - 6. Lacrimosa
TTITLE8=Requiem In D Minor KV 626 - IV. Offertorium - 1. Domine Jesu
TTITLE9=Requiem In D Minor KV 626 - IV. Offertorium - 2. Hostias
TTITLE10=Requiem In D Minor KV 626 - V. Sanctus - Sanctus
TTITLE11=Requiem In D Minor KV 626 - VI. Benedictus - Benedictus
TTITLE12=Requiem In D Minor KV 626 - VII. Agnus Dei - Agnus Dei
TTITLE13=Requiem In D Minor KV 626 - VIII. Communi - Lux Aeterna
TTITLE14=Data Track
EXTD=
EXTT0=
EXTT1=
EXTT2=
EXTT3=
EXTT4=
EXTT5=
EXTT6=
EXTT7=
EXTT8=
EXTT9=
EXTT10=
EXTT11=
EXTT12=
EXTT13=
EXTT14=
PLAYORDER=
